# xmcd
#
# Track frame offsets: 
#        150
#        21695
#        36377
#        51722
#        66850
#        80545
#        97157
#        109432
#        126160
#        142062
#        154645
#        166910
#        179370
#        191545
#
# Disc length: 3055 seconds
#
# Revision: 0
# Processed by: cddbd v1.5.2PL0 Copyright (c) Steve Scherf et al.
# Submitted via: ExactAudioCopy v1.0b3
#
DISCID=d70bed0e
DTITLE=Wayne Toups - Reflectios Of The Past
DYEAR=2005
DGENRE=Zydeco
TTITLE0=Creole Stomp
TTITLE1=Petit Monde
TTITLE2=C'est Ça Qui Me Fait Du Mal
TTITLE3=Le Paradis Des Musiciens (Musicians' Paradise)
TTITLE4=Trop Jeune Pour Se Marier
TTITLE5=Mémoires De Mon Coeur
TTITLE6=Church Point Breakdown
TTITLE7=Je Veux Plus Te Voir
TTITLE8=Reno Waltz
TTITLE9=Quand J'Étais Pauvre
TTITLE10=La Lettre Qu'elle M'A Laissée
TTITLE11=Wafus Two Step
TTITLE12=Trois Jours Après Ma Mort
TTITLE13=Medley Acoustique
EXTD=
EXTT0=
EXTT1=
EXTT2=
EXTT3=
EXTT4=
EXTT5=
EXTT6=
EXTT7=
EXTT8=
EXTT9=
EXTT10=
EXTT11=
EXTT12=
EXTT13=
PLAYORDER=
